<svg id="SvgjsSvg1014" width="288" height="288" xmlns="http://www.w3.org/2000/svg" version="1.1" xmlns:xlink="http://www.w3.org/1999/xlink" xmlns:svgjs="http://svgjs.com/svgjs"><defs id="SvgjsDefs1015"></defs><g id="SvgjsG1016"><svg xmlns="http://www.w3.org/2000/svg" viewBox="0 0 24 24" width="288" height="288"><g data-name="Layer 2" fill="#6a4dff" class="color000 svgShape"><g data-name="message-circle" fill="#6a4dff" class="color000 svgShape"><rect width="24" height="24" opacity="0" fill="#6a4dff" class="color000 svgShape"></rect><path d="M19.07 4.93a10 10 0 0 0-16.28 11 1.06 1.06 0 0 1 .09.64L2 20.8a1 1 0 0 0 .27.91A1 1 0 0 0 3 22h.2l4.28-.86a1.26 1.26 0 0 1 .64.09 10 10 0 0 0 11-16.28zM8 13a1 1 0 1 1 1-1 1 1 0 0 1-1 1zm4 0a1 1 0 1 1 1-1 1 1 0 0 1-1 1zm4 0a1 1 0 1 1 1-1 1 1 0 0 1-1 1z" fill="#6a4dff" class="color000 svgShape"></path></g></g></svg></g></svg>